<svg id="EY-03" xmlns="http://www.w3.org/2000/svg" viewBox="0 0 241.22 272.09"><defs><style>.cls-1{fill:#4c87c7;}.cls-2{fill:#4885c6;}</style></defs><title>EY-03</title><path class="cls-1" d="M318,380.5H226.22c-4.72-15.84-.61-32.56-2.7-49-10.18-4.26-20.62,4.88-31.3-1-6.54-18.37-13.26-37.27-20.05-56.35l-24.66-1.35c1.93-7.28,3.83-13.86,5.42-20.52,4.81-20.19,9-40.56,14.35-60.61,10.22-38.25,34.39-63.78,72-76.47,39.34-13.28,75.66-7,107.85,18.74,22.38,17.9,35.74,41.69,40,70.46,3.56,24.13,1.83,47.49-10.34,68.91-5.32,9.38-12.56,17.91-20,25.8-11,11.62-22.28,22.81-29.75,37.18a75.87,75.87,0,0,0-9,37.66C318,375.93,318,377.92,318,380.5Zm-9.12-8c.73-4.46,1.44-8.68,2.11-12.91,2.83-17.89,8.91-34.06,22.48-47A322.86,322.86,0,0,0,358.21,286c19.66-23.45,26.85-50.56,21.67-80.68-3.39-19.71-11-38-24.16-53.06-28.11-32.19-64.48-41.54-104.91-32.66-36.82,8.1-60.67,33-73.52,67.68-5.86,15.8-8.17,32.9-12.36,49.33-2.56,10-5.63,19.9-8.66,30.49h21l21.5,56.8h32.26v48.61Z" transform="translate(-147.51 -108.41)"/><path class="cls-2" d="M296.11,282.46H255a1.81,1.81,0,0,1-.73-1.47c0-8.82-4.34-16.05-8.53-23.34-3.88-6.74-8.85-12.87-10.9-20.61a41.84,41.84,0,0,1,75.48-33.88c8.9,14.15,9,28.69,1.32,43.3-2.67,5-6.07,9.69-9,14.59a58.77,58.77,0,0,0-4.79,10A35,35,0,0,0,296.11,282.46Z" transform="translate(-147.51 -108.41)"/><path class="cls-2" d="M275.49,301.21H291.4c2.52,0,4.46,1.46,4.78,3.54.29,1.88-1.2,3.89-3.47,4.59a7.93,7.93,0,0,1-2.21.37q-15.4,0-30.8,0a5.27,5.27,0,0,1-4.65-2.05,3.76,3.76,0,0,1-.17-4.28,4.06,4.06,0,0,1,3.7-2.18c5.64,0,11.28,0,16.91,0Z" transform="translate(-147.51 -108.41)"/><path class="cls-2" d="M275.11,296.15c-5.22,0-10.43,0-15.65,0-3.19,0-5-1.47-5.16-4s1.69-4.38,4.79-4.41q16-.16,32.06,0c3.12,0,5.24,2.08,5.07,4.42-.18,2.57-2.07,4-5.45,4-5.22,0-10.44,0-15.66,0Z" transform="translate(-147.51 -108.41)"/><path class="cls-2" d="M328.31,242.16c.76-3.17,1.47-6.13,2.19-9.11L351,235.76a77.16,77.16,0,0,1-2.81,12.61C341.41,246.77,335,244.32,328.31,242.16Z" transform="translate(-147.51 -108.41)"/><path class="cls-2" d="M199.27,214.6c1-4.35,2-8.39,2.93-12.53L222,208.38a35.73,35.73,0,0,1-2,8.92C213.11,216.66,206.4,215.87,199.27,214.6Z" transform="translate(-147.51 -108.41)"/><path class="cls-2" d="M302.52,153.68l11.6,5.6L303.68,177c-3.22-.62-5.61-2.36-8.57-3.74C297.54,166.83,300,160.46,302.52,153.68Z" transform="translate(-147.51 -108.41)"/><path class="cls-2" d="M234.74,187.1l-5.83,7.26-17.37-11.54a119.68,119.68,0,0,1,8-10Z" transform="translate(-147.51 -108.41)"/><path class="cls-2" d="M348.05,202A75.76,75.76,0,0,1,351,214.28c-6.85,1.34-13.6,2.22-20.53,3-.74-3.09-1.41-5.91-2.14-9Z" transform="translate(-147.51 -108.41)"/><path class="cls-2" d="M228.68,256.35c2.48,2.18,3.92,4.66,6,7.11l-15.19,14.4-8-10Z" transform="translate(-147.51 -108.41)"/><path class="cls-2" d="M315.71,263.56l5.8-7.26,17.37,11.64-8,10Z" transform="translate(-147.51 -108.41)"/><path class="cls-2" d="M246.8,177.14,236.21,159.4l11.56-5.68,7.45,19.41A38.74,38.74,0,0,1,246.8,177.14Z" transform="translate(-147.51 -108.41)"/><path class="cls-2" d="M268.85,149a94.37,94.37,0,0,1,12.7,0c-.07,7-1.31,13.67-1.76,20.54h-9.37Z" transform="translate(-147.51 -108.41)"/><path class="cls-2" d="M199.32,236.23c6.9-1.64,13.61-1.83,20.33-3,1.55,2.87,1.84,5.83,2.32,8.91-6.61,2.19-13,4.49-19.84,6.26Z" transform="translate(-147.51 -108.41)"/><path class="cls-2" d="M321.5,194.3,315.7,187l15.17-14.33c2.8,3.39,5.46,6.43,7.91,10.05Z" transform="translate(-147.51 -108.41)"/><path class="cls-2" d="M262.19,314.69h26.6a81.43,81.43,0,0,1-7.43,7.66A3.41,3.41,0,0,1,279,323c-9.23.31-9.23.32-15.68-6.35C262.84,316.14,262.16,315.81,262.19,314.69Z" transform="translate(-147.51 -108.41)"/></svg>