<svg id="EY-04" xmlns="http://www.w3.org/2000/svg" viewBox="0 0 295.74 278.03"><defs><style>.cls-1{fill:#4381c5;}.cls-2{fill:#4482c5;}.cls-3{fill:#4381c4;}.cls-4{fill:#4281c4;}.cls-5{fill:#4280c4;}.cls-6{fill:#4180c4;}</style></defs><title>EY-04</title><path class="cls-1" d="M293.61,131.68c-16.77-3.76-33.22-1.37-49.76,2-4.73,1-12.47,4.61-13.94-3.63-1.35-7.5,6.05-7.8,11.51-9a162.17,162.17,0,0,1,75,.69c34.3,8.45,53.57,33.48,65.66,64.66,6.9,17.76,12.54,35.78,26.52,49.84,3.16,3.18,9.94,8.56,3.23,14.07-6.9,5.66-10.18-2.44-13-6.1-8.91-11.67-19.21-22-29.26-32.58-8.65-9.13-16.79-11.61-29.56-7.81-8.48,2.52-18.47,8.27-30.13,2.29,10.81-10,24.76-5.44,36.25-12.54-16.42-16-37.22-23.3-57.63-31.25-2.58-1-5.84-.64-8.06-2.06-4.07-2.6-13.3-1.16-10.33-9.91,2.86-8.43,9.93-2.93,14.43-1.92,9.54,2.15,18.7,6,29,9.45-2.87-8.06-9.38-11.29-13.35-16.62,8.57-9.46,12.37,1.38,15.18,5,14.86,19.28,33.74,33.46,54.42,46.88C357.88,154.73,329.45,130.8,293.61,131.68Z" transform="translate(-118.92 -116.99)"/><path class="cls-2" d="M354.21,353.92c17.45-10.61,22.47-29.49,30.65-46.23,1.7-3.49,2.37-7.47,3.74-11.14,1.64-4.38,3.86-8.76,9.62-6.74,5,1.77,4,6.51,2.8,10.05-22.35,65.3-55.47,101.44-123.31,94.25-21-2.22-41.51-8.11-62.9-2.89-3.89.95-11.24,3.22-12-4.62-.74-7.58,6.94-6.79,11-7.41a357.33,357.33,0,0,0,45.79-9.77c10.36-3,15.76-7.84,18.22-18.79,2.07-9.23,3.71-19.7,13.34-28.28,3.26,14.13-7.85,23.79-6.38,36.56,22.67-8.24,41.3-21.58,58.53-37.63,4.25-4,9.48-15.29,16.64-7.34,6.55,7.27-3.74,12.54-8.47,17.35-5.82,5.91-12.54,10.94-19.36,16.77,7.24,5.52,19.5-10.92,22.45,6.15-28.4,2.84-55.49,9.66-80.32,25.45,13.49,5.2,26.6,4,39,1.09C329.65,376.84,347.25,373.07,354.21,353.92Z" transform="translate(-118.92 -116.99)"/><path class="cls-3" d="M170.07,228.39c-7.34,27-2,51,3,74.85,1.13,5.41,5.53,12.23-1.67,14.41-8.26,2.5-8.78-5.87-10.11-11.72-2.1-9.24-4.28-18.46-6.55-28.24-6.76,4.62-4,13.6-14.08,21.76,5-32.45,19.89-58.92,15.9-87.55-25.64,22.78-31.67,56.07-16.27,92.65a151,151,0,0,0,30.14,46.17c3.42,3.59,8.22,8.13,2.56,12.64-4.21,3.35-8.19-.66-11.33-4.19C109.14,300.28,102.51,247.11,155.9,190c10.24-10.94,13.22-24.26,19.49-36.52,2.19-4.26,3.55-11.1,10.27-8.2,6.09,2.62,3.79,8.77,1.81,13.18-6.45,14.31-10.6,29.33-15,44.31-3.15,10.74-1.23,19.14,7.87,26.51,6,4.88,10.59,11.55,15.68,17.53,1.86,2.19,3.44,4.9.29,7.19-3.32,2.43-5-.86-6.62-2.72C183.48,244.29,177.47,237.08,170.07,228.39Z" transform="translate(-118.92 -116.99)"/><path class="cls-4" d="M182.21,352.82c-1.05-27.88,8.25-51,19.29-73.95,15.66-32.49,12.23-47.58-15.3-71.8-4.31-3.78-7.64-7.31-3.26-12.49,4.63-5.47,8.17.34,11.32,2.41,27.56,18.09,36.6,46.43,22.4,77.67-13.33,29.35-25.23,58.45-21.15,91.61.57,4.56.05,10.19-5.55,10.56-6.56.42-7.55-5.42-7.71-10.68C182.09,361.1,182.21,356,182.21,352.82Z" transform="translate(-118.92 -116.99)"/><path class="cls-5" d="M243,354.63c1.14-35.47,26.91-59.42,68-60.95,28.37-1.06,53.74-8.51,76.91-24.58,3.81-2.63,8.82-7.5,13-1.42,4,5.85-1.59,8.62-5.66,11.72-25.57,19.49-55.27,25.77-86.44,27.21-31.55,1.45-47.91,15.91-52.34,47.31-.77,5.46-1.36,10.67-8.16,10.15C241.88,363.58,243.45,357.82,243,354.63Z" transform="translate(-118.92 -116.99)"/><path class="cls-6" d="M331.48,239.68c-21.51-2.07-37.42-10.75-47.54-26.25-18-27.63-37.88-52.56-69.33-65.78-4.39-1.84-8-5.56-5-10.6,2.5-4.28,6.6-2.23,10.36-.63a136.51,136.51,0,0,1,58.16,46.52c4.26,5.89,8.26,12,12.46,17.91,17.68,25,35.39,30.78,63.64,20.72,5.15-1.84,11.74-6.8,14.68,0,3.6,8.3-6,9.19-10.8,10.95C348.77,235.88,338.9,237.76,331.48,239.68Z" transform="translate(-118.92 -116.99)"/></svg>