<svg id="EY-02" xmlns="http://www.w3.org/2000/svg" viewBox="0 0 276.19 240.1"><defs><style>.cls-1{fill:#3f7fc3;}</style></defs><title>EY-02</title><g id="ehrtzm"><path class="cls-1" d="M398,160.66q0,99.5.1,199c0,3.42-.68,4.1-4.1,4.1q-134-.19-268,0c-3.42,0-4.1-.68-4.1-4.1q.19-104.51.1-209c2.74-6.57,8.05-8.84,14.73-8.84,4.68,0,9.45-.16,13.54-2.56A116.6,116.6,0,0,1,195,123.66h14a158.47,158.47,0,0,1,42.15,11.94,21,21,0,0,0,16.16.16c14.46-5.74,29.15-10.45,44.69-12.1h11a13.86,13.86,0,0,0,2.39.64,95.17,95.17,0,0,1,40.79,13.32,34.45,34.45,0,0,0,13.09,4.52C390.31,143.56,398.27,147.89,398,160.66Zm-34.21,87.43h0v-85c0-11.72-2-14.53-12.8-19.13-23-9.8-45.95-8.82-69.07-.34-12.79,4.68-15.82,8.55-15.81,21.95q0,84,.1,167.94c0,10.78,0,10.67,10,6.89,26.95-10.18,53.89-11.21,80.7.52,6.66,2.91,6.86,2.86,6.86-4.39Q363.8,292.33,363.79,248.09Zm-208.56-.78q0,41.22,0,82.45a49.87,49.87,0,0,0,.15,6c.72,6,2.11,6.77,7.72,4.51,11.49-4.62,23.18-7.68,35.78-8a113.4,113.4,0,0,1,48.56,9.51c3.9,1.68,5.26.39,5.36-3.39,0-1.66.06-3.33.06-5q0-61.45.06-122.92c0-16.64,1.41-33.26.85-49.91-.19-5.44-1.35-10.16-6.88-12.79-25.37-12-51.19-14.93-77.74-4-10.26,4.22-13.92,9.57-13.92,20.61Q155.21,205.85,155.23,247.31ZM143.76,253V162.57c0-3.39-.32-6.67-4.81-6.58-4.16.09-3.88,3.35-3.88,6.2q0,85.17.09,170.34a58.11,58.11,0,0,1-.7,10.44c-.59,3.29.21,6.15,4.32,6.34,3.68.17,4.95-2.09,5-5.41,0-1.5,0-3,0-4.49Q143.77,296.2,143.76,253Zm232.37-.86h0q0,44.47,0,88.95c0,1.5,0,3,.09,4.5.15,2.32,1.29,3.73,3.76,3.76s4.21-1.1,4.56-3.64a40.19,40.19,0,0,0,.19-5.49q0-88.45,0-176.91a29,29,0,0,0-.2-4.48c-.35-2.21-2-2.91-4-2.92s-3.7.6-4.12,2.8a24.7,24.7,0,0,0-.29,4.47Q376.13,207.65,376.13,252.13ZM220.9,349.2c-4.86-5.7-32.15-6-39,0Zm74.42,0h38.39C320.91,343.16,308.12,344,295.32,349.24Z" transform="translate(-121.9 -123.66)"/></g></svg>