<svg id="EY-05" xmlns="http://www.w3.org/2000/svg" viewBox="0 0 265.23 270.94"><defs><style>.cls-1{fill:#4482c5;}.cls-2{fill:#4684c5;}.cls-3{fill:#4583c5;}</style></defs><title>EY-05</title><g id="ehrtzm"><path class="cls-1" d="M231,299.66c2,21.54,1.1,43.08.54,64.63-.1,3.66,1,7.38-4.4,7.86-6.14.54-6.28-3.42-6.27-7.86.06-21.07-.11-42.13.07-63.2.05-6.46-.49-11.41-7.78-14.55-10.44-4.51-14.45-14-14.6-25-.21-15.93.06-31.86-.3-47.78-.29-12.37,5.89-20.84,16.23-25.73,30.89-14.61,62.09-14.93,93,.29,10.47,5.17,16.39,13.44,16.14,25.76-.33,15.92,0,31.85-.19,47.77-.15,11.05-4.52,20.54-14.89,24.85-7.72,3.21-7.49,8.49-7.47,14.72.05,20,.12,40.08-.16,60.11-.06,3.9,2.51,10.61-5.16,10.17-7.17-.41-4.69-6.88-4.71-10.89q-.22-63.18.07-126.39c0-4.08-2-10.54,5.55-10.13,6.31.34,4.09,6,4.17,9.66.29,12.84.15,25.69.34,38.53,0,1.68-.86,4.61,2.42,4.43,1.31-.08,2.75-1.2,3.78-2.2,4.73-4.58,6.25-10.35,6.19-16.79-.11-13.87-.5-27.76.1-41.61.39-9-3.76-14.95-11-18.6-27.95-14.08-56.08-14.12-83.86.5-6.62,3.49-10.65,8.94-10.35,17.39.51,14.37.08,28.77.13,43.15,0,2.55-.19,5.37.79,7.59,2,4.54,4,11.13,9.75,10.05,3.76-.7,1.57-7.14,1.67-10.95.3-11.29.07-22.6.16-33.9,0-3.51-.5-7.75,5.05-7.51,5.18.23,5,4.28,5,7.84C231,254.45,231,277.06,231,299.66Z" transform="translate(-128.3 -101.26)"/><path class="cls-1" d="M359.58,305.22c0-19-.06-38,0-56.94,0-3.82-1.13-9,5.56-8.37,5.36.47,4.32,4.86,4.36,8.2.14,11.28,0,22.57.09,33.85,0,2.93-.51,6.64,3.86,7.06,3.46.34,5.94-1.91,7.16-4.83a32.08,32.08,0,0,0,2.83-13.39c-.24-8.2-.1-16.41-.13-24.62-.11-27.63-10.29-38.41-38.26-40.43-3.06-.22-6.16,0-9.22-.22-5.53-.39-4.12-5-4.55-8.18-.7-5.14,3.66-4.14,6.17-3.82,14.72,1.82,29.37,4.51,42,12.74,8.46,5.49,14.06,13.31,14,24.14-.08,15.9,0,31.8-.05,47.7,0,10.42-5.19,17.79-14.71,21-8,2.69-9.56,7.58-9.38,15.08.38,16.41.12,32.83,0,49.24,0,3.88,1,9-5.57,8.49-5.47-.42-4.15-5-4.17-8.23C359.52,344.2,359.58,324.71,359.58,305.22Z" transform="translate(-128.3 -101.26)"/><path class="cls-2" d="M162.27,306.69c0,18.47.12,36.95-.11,55.42,0,3.56,2.12,9.31-4.23,9.61-7.61.36-5.26-6.14-5.34-10.13-.3-15.39-.51-30.79-.06-46.17.22-7.92-1-13.61-9.59-16.58-10.32-3.57-14.78-11.63-14.6-22.61.25-14.88.32-29.77,0-44.64-.25-10.88,4.82-18.88,13.14-24.62,12.93-8.91,28.12-11.6,43.36-13.51,2.52-.32,6.67-1.18,6,4-.53,3.92,0,8.87-6.29,8.17-10.62-1.16-20.14,2.7-29.69,6.31-10.05,3.8-15.92,11-16.16,21.95-.3,13.33-.21,26.68,0,40,.07,4.61,1.14,9.31,4.1,12.92,1.44,1.76,4.42,3.41,6.49,3.19,2.82-.31,3.11-3.59,3.11-6.22,0-11.8-.11-23.6,0-35.41,0-3.93-.8-9,5.7-8.46,5.46.41,4.22,5,4.24,8.21.13,19.5.06,39,.06,58.5Z" transform="translate(-128.3 -101.26)"/><path class="cls-3" d="M254.84,324.43c0-11.81-.08-23.61,0-35.42,0-3.91-.89-8.49,5.52-8.85,6-.33,6.57,3.29,6.57,7.81q0,38.49,0,77c0,3.94-.52,6.89-5.58,7.18-6,.35-6.64-3.07-6.61-7.68.07-13.34,0-26.69,0-40Z" transform="translate(-128.3 -101.26)"/><path class="cls-2" d="M214.77,154.33c.24,6.45-.44,12.4-3.44,17.76-5.54,9.93-14.14,15.63-25.45,15.41-11.49-.22-20.38-5.78-25.11-16.67-5.07-11.66-5-23.62-.49-35.39,3.64-9.53,11.23-14.37,21.1-15.82a32.5,32.5,0,0,1,12.58.46c9.45,2.34,15.13,8.7,18.34,17.58A45.71,45.71,0,0,1,214.77,154.33Zm-11.13-.14c-.1-3.88.13-7.4-.6-10.91a16.8,16.8,0,0,0-9.48-12.2,25,25,0,0,0-5-1.78A14.28,14.28,0,0,0,176,132c-4.74,3.62-6.78,9-7.3,14.67s-.63,11.5,1.1,17.17a20.56,20.56,0,0,0,7,10.61,9.27,9.27,0,0,0,4.69,2.14c3.36.31,6.7.43,10-.69,6.15-2.09,10.14-6,11.59-12.52C203.81,160.14,203.37,157,203.64,154.19Z" transform="translate(-128.3 -101.26)"/><path class="cls-2" d="M288.92,135.86c-.1,5.69-.48,11.33-2.28,16.79-3.23,9.83-10.15,15-20.24,16.13a41.07,41.07,0,0,1-13.32-.39c-10-2.11-16-8.39-18.48-18.11a62.38,62.38,0,0,1-.53-27.69,26.58,26.58,0,0,1,22.34-21,28,28,0,0,1,32.29,25.45C289,130,288.86,132.93,288.92,135.86Zm-9.59-1.17a26,26,0,0,0-1.47-10.37c-1.33-3.81-3.42-7.09-7.19-9.11-4.94-2.67-10.15-2.42-15.36-1.57a12.63,12.63,0,0,0-6.54,3.33c-4.28,4-5.52,9.35-6,14.84a38.62,38.62,0,0,0,.5,11.44c.9,4.14,2.11,8.21,5.12,11.22,4.54,4.54,10.07,6.08,16.49,4.72,5.61-1.18,9.24-4.74,11.65-9.53A29.79,29.79,0,0,0,279.33,134.69Z" transform="translate(-128.3 -101.26)"/><path class="cls-2" d="M365.15,152.54c0,7.64-1.27,15-5.27,21.63-4.86,8.05-12.1,12.28-21.44,12.92-9,.61-16.93-1.78-23.09-8.74a27.5,27.5,0,0,1-5.62-9.94,49.19,49.19,0,0,1-.19-30.56c4.5-14.11,15.93-19.24,28.59-18.45,7.55.47,14.12,3.19,19.21,9,4.39,5,6.51,11,7.43,17.47A46.88,46.88,0,0,1,365.15,152.54Zm-11.62,0a29.32,29.32,0,0,0-3.5-15.76,15.84,15.84,0,0,0-17.38-7.46,16.53,16.53,0,0,0-10.87,8c-5.46,9-5.39,18.51-2.22,28.16a14.21,14.21,0,0,0,9.35,9.36,24.64,24.64,0,0,0,11.93.74c5.77-1,9.45-4.35,11.22-10C353.32,161.6,353.5,157.51,353.53,152.58Z" transform="translate(-128.3 -101.26)"/></g></svg>